<svg id="visual" viewBox="0 0 1080 100" width="1080" height="100" xmlns="http://www.w3.org/2000/svg"
    xmlns:xlink="http://www.w3.org/1999/xlink" version="1.1">
    <path
        d="M0 65L6 54.8C12 44.7 24 24.3 36 29C48 33.7 60 63.3 72 71.3C84 79.3 96 65.7 108 62.5C120 59.3 132 66.7 144 69.3C156 72 168 70 180 68.7C192 67.3 204 66.7 216 64.3C228 62 240 58 252 55.8C264 53.7 276 53.3 288 54.8C300 56.3 312 59.7 324 59C336 58.3 348 53.7 360 57C372 60.3 384 71.7 396 75.5C408 79.3 420 75.7 432 73.3C444 71 456 70 468 60.3C480 50.7 492 32.3 504 34C516 35.7 528 57.3 540 62.7C552 68 564 57 576 45.5C588 34 600 22 612 15.8C624 9.7 636 9.3 648 21.8C660 34.3 672 59.7 684 63.3C696 67 708 49 720 38.3C732 27.7 744 24.3 756 30C768 35.7 780 50.3 792 59C804 67.7 816 70.3 828 65.3C840 60.3 852 47.7 864 40.8C876 34 888 33 900 38.3C912 43.7 924 55.3 936 55.3C948 55.3 960 43.7 972 45.5C984 47.3 996 62.7 1008 71.5C1020 80.3 1032 82.7 1044 77.3C1056 72 1068 59 1074 52.5L1080 46L1080 0L1074 0C1068 0 1056 0 1044 0C1032 0 1020 0 1008 0C996 0 984 0 972 0C960 0 948 0 936 0C924 0 912 0 900 0C888 0 876 0 864 0C852 0 840 0 828 0C816 0 804 0 792 0C780 0 768 0 756 0C744 0 732 0 720 0C708 0 696 0 684 0C672 0 660 0 648 0C636 0 624 0 612 0C600 0 588 0 576 0C564 0 552 0 540 0C528 0 516 0 504 0C492 0 480 0 468 0C456 0 444 0 432 0C420 0 408 0 396 0C384 0 372 0 360 0C348 0 336 0 324 0C312 0 300 0 288 0C276 0 264 0 252 0C240 0 228 0 216 0C204 0 192 0 180 0C168 0 156 0 144 0C132 0 120 0 108 0C96 0 84 0 72 0C60 0 48 0 36 0C24 0 12 0 6 0L0 0Z"
        fill="#ffffff" stroke-linecap="round" stroke-linejoin="miter"></path>
</svg>